<svg xmlns="http://www.w3.org/2000/svg" viewBox="0 0 48 48" width="48" height="48">
  <path fill="#1976D2" d="M42,8v32c0,1.1-0.9,2-2,2H8c-1.1,0-2-0.9-2-2V8c0-1.1,0.9-2,2-2h32C41.1,6,42,6.9,42,8z"/>
  <path fill="#fff" d="M35,38c0,0.6-0.4,1-1,1H14c-0.6,0-1-0.4-1-1V10c0-0.6,0.4-1,1-1h20c0.6,0,1,0.4,1,1V38z"/>
  <circle cx="24" cy="24" r="8" fill="#0078D4"/>
  <path fill="#fff" d="M24,16c-4.4,0-8,3.6-8,8s3.6,8,8,8s8-3.6,8-8S28.4,16,24,16z M24,29c-2.8,0-5-2.2-5-5s2.2-5,5-5s5,2.2,5,5S26.8,29,24,29z"/>
  <path fill="#0078D4" d="M24,19c-2.8,0-5,2.2-5,5s2.2,5,5,5s5-2.2,5-5S26.8,19,24,19z M24,27c-1.7,0-3-1.3-3-3s1.3-3,3-3s3,1.3,3,3S25.7,27,24,27z"/>
</svg>



